<?xml version="1.0" encoding="UTF-8" standalone="no"?>
<!-- Generator: Adobe Illustrator 16.0.4, SVG Export Plug-In . SVG Version: 6.00 Build 0)  -->

<svg
   xmlns:dc="http://purl.org/dc/elements/1.1/"
   xmlns:cc="http://creativecommons.org/ns#"
   xmlns:rdf="http://www.w3.org/1999/02/22-rdf-syntax-ns#"
   xmlns:svg="http://www.w3.org/2000/svg"
   xmlns="http://www.w3.org/2000/svg"
   xmlns:sodipodi="http://sodipodi.sourceforge.net/DTD/sodipodi-0.dtd"
   xmlns:inkscape="http://www.inkscape.org/namespaces/inkscape"
   version="1.1"
   id="Layer_1"
   x="0px"
   y="0px"
   width="77.346001"
   height="98.569977"
   viewBox="0 0 77.346001 98.56998"
   enable-background="new 0 0 276 157.482"
   xml:space="preserve"
   inkscape:version="0.91 r13725"
   sodipodi:docname="tree.svg"><metadata
     id="metadata127"><rdf:RDF><cc:Work
         rdf:about=""><dc:format>image/svg+xml</dc:format><dc:type
           rdf:resource="http://purl.org/dc/dcmitype/StillImage" /><dc:title /></cc:Work></rdf:RDF></metadata><defs
     id="defs125" /><sodipodi:namedview
     pagecolor="#ffffff"
     bordercolor="#666666"
     borderopacity="1"
     objecttolerance="10"
     gridtolerance="10"
     guidetolerance="10"
     inkscape:pageopacity="0"
     inkscape:pageshadow="2"
     inkscape:window-width="1280"
     inkscape:window-height="970"
     id="namedview123"
     showgrid="false"
     fit-margin-top="0"
     fit-margin-left="0"
     fit-margin-right="0"
     fit-margin-bottom="0"
     inkscape:zoom="5.1034663"
     inkscape:cx="14.06426"
     inkscape:cy="60.937681"
     inkscape:window-x="40"
     inkscape:window-y="0"
     inkscape:window-maximized="1"
     inkscape:current-layer="g47" /><g
     id="g3"
     transform="translate(-0.676398,-0.55421687)"><g
       id="g47"
       transform="translate(-98.650602,0.55421687)"><path
         d="m 137.606,94.471 c -3.257,0 -5.214,-0.342 -8.311,-1.446 -2.952,-1.057 -4.583,-1.946 -7.024,-3.917 l 1.102,-1.704 c 2.254,1.789 3.639,2.653 6.337,3.635 2.885,1.062 4.744,1.377 7.837,1.403 3.083,-0.026 4.969,-0.331 7.869,-1.403 2.698,-0.984 4.089,-1.846 6.34,-3.635 l 1.102,1.704 c -2.443,1.971 -4.074,2.858 -7.021,3.917 -3.066,1.094 -4.974,1.446 -8.231,1.446 z"
         id="path49"
         inkscape:connector-curvature="0"
         style="fill:#73000a;fill-opacity:1" /><g
         id="g51"
         style="fill:#73000a;fill-opacity:1"><path
           d="m 128.028,88.207 1.792,0.834 c -0.246,-0.197 -0.257,-0.431 -0.062,-0.853 l 1.409,-3.003 c -0.305,-0.011 -0.666,-0.091 -1.428,-0.305 l -0.107,-0.035 c 0.032,0.024 0.054,0.046 0.07,0.062 0.225,0.171 0.254,0.334 0.112,0.66 0,0 -0.941,2.038 -0.958,2.083 -0.268,0.514 -0.337,0.564 -0.714,0.557 -0.028,0.007 -0.065,0.007 -0.114,0 z"
           id="path53"
           inkscape:connector-curvature="0"
           style="fill:#73000a;fill-opacity:1" /></g><g
         id="g55"
         style="fill:#73000a;fill-opacity:1"><path
           d="m 134.876,87.482 -0.051,-0.029 c -0.698,-0.477 -0.925,-0.888 -0.786,-1.412 0.139,-0.508 0.532,-0.757 0.998,-0.637 0.502,0.143 0.746,0.643 0.602,1.198 -0.123,0.441 -0.41,0.773 -0.763,0.88 z m -0.842,0.457 c 1.029,0.645 1.348,1.174 1.15,1.926 -0.177,0.652 -0.701,1.008 -1.286,0.845 -0.671,-0.18 -0.958,-0.815 -0.735,-1.65 0.157,-0.581 0.465,-0.979 0.871,-1.121 z m -0.206,-0.149 -0.115,0.008 c -0.244,0.035 -0.444,0.066 -0.618,0.099 -0.545,0.126 -0.941,0.489 -1.072,0.981 -0.241,0.894 0.431,1.728 1.647,2.057 1.246,0.326 2.321,-0.134 2.583,-1.12 0.064,-0.233 0.081,-0.469 0.032,-0.698 -0.094,-0.511 -0.326,-0.797 -1.102,-1.385 -0.03,-0.014 -0.078,-0.054 -0.136,-0.104 0.823,0.016 1.388,-0.297 1.537,-0.861 0.177,-0.666 -0.377,-1.311 -1.369,-1.577 -1.077,-0.286 -1.976,0.099 -2.203,0.951 -0.112,0.417 -0.016,0.848 0.251,1.155 0.172,0.204 0.237,0.263 0.565,0.494 z"
           id="path57"
           inkscape:connector-curvature="0"
           style="fill:#73000a;fill-opacity:1" /></g><g
         id="g59"
         style="fill:#73000a;fill-opacity:1"><path
           d="m 140.992,90.271 c -0.754,0.131 -1.465,-0.618 -1.671,-1.775 -0.192,-1.083 0.158,-1.898 0.848,-2.02 0.754,-0.136 1.502,0.663 1.708,1.837 0.187,1.049 -0.168,1.829 -0.885,1.958 z m 0.005,0.275 c 1.503,-0.26 2.38,-1.329 2.152,-2.629 -0.227,-1.297 -1.457,-1.997 -2.991,-1.729 -0.37,0.062 -0.738,0.189 -1.064,0.379 -0.859,0.479 -1.198,1.215 -1.022,2.223 0.235,1.341 1.401,2.029 2.925,1.756 z"
           id="path61"
           inkscape:connector-curvature="0"
           style="fill:#73000a;fill-opacity:1" /></g><g
         id="g63"
         style="fill:#73000a;fill-opacity:1"><path
           d="m 145.629,88.953 1.775,-0.864 c -0.308,0.06 -0.5,-0.08 -0.706,-0.497 l -1.444,-2.986 c -0.203,0.232 -0.486,0.465 -1.134,0.922 l -0.096,0.062 c 0.043,-0.008 0.069,-0.019 0.091,-0.011 0.278,-0.069 0.425,0.011 0.588,0.318 0,0 0.989,2.019 1.011,2.062 0.235,0.529 0.23,0.62 -0.011,0.904 -0.018,0.025 -0.037,0.053 -0.074,0.09 z"
           id="path65"
           inkscape:connector-curvature="0"
           style="fill:#73000a;fill-opacity:1" /></g><polygon
         points="147.257,52.205 160.287,52.205 158.803,54.598 148.655,54.598 "
         id="polygon67"
         style="fill:#73000a;fill-opacity:1" /><polygon
         points="174.461,65.262 158.832,65.262 158.832,76.131 156.816,76.131 156.816,57.793 151.072,57.793 151.072,76.131 148.987,76.131 148.987,55.742 158.832,55.742 158.832,64.206 174.461,64.206 "
         id="polygon69"
         style="fill:#73000a;fill-opacity:1" /><path
         d="m 161.212,58.823 c 1.062,-0.545 1.732,0 1.732,0 l 0,17.308 -1.732,0 0,-17.308 z"
         id="path71"
         inkscape:connector-curvature="0"
         style="fill:#73000a;fill-opacity:1" /><path
         d="m 165.498,60.842 c 1.066,-0.548 1.735,0 1.735,0 l 0,15.289 -1.735,0 0,-15.289 z"
         id="path73"
         inkscape:connector-curvature="0"
         style="fill:#73000a;fill-opacity:1" /><path
         d="m 169.787,62.08 c 1.066,-0.543 1.735,0 1.735,0 l 0,14.051 -1.735,0 0,-14.051 z"
         id="path75"
         inkscape:connector-curvature="0"
         style="fill:#73000a;fill-opacity:1" /><path
         d="m 174.079,63.002 c 1.064,-0.548 1.732,0 1.732,0 l 0,13.128 -1.732,0 0,-13.128 z"
         id="path77"
         inkscape:connector-curvature="0"
         style="fill:#73000a;fill-opacity:1" /><path
         d="m 142.602,76.131 2.789,0 -3.396,-4.465 3.858,0 0,-1.882 -4.206,0 0.056,-13.604 3.858,-3.974 -2.938,0 2.946,-4.266 -2.818,0 2.354,-2.927 c 1.075,0.838 1.631,1.398 2.497,2.455 1.134,1.405 1.65,2.332 2.343,3.999 l 0,-5.188 c -0.803,-0.742 -1.305,-1.119 -2.252,-1.668 -1.508,-0.884 -2.486,-1.23 -4.208,-1.554 l -4.145,4.891 3.116,0 -2.821,4.259 2.647,0 -3.107,3.284 -0.027,15.76 3.454,4.88 z"
         id="path79"
         inkscape:connector-curvature="0"
         style="fill:#73000a;fill-opacity:1" /><polygon
         points="127.879,52.205 114.853,52.205 116.333,54.598 126.478,54.598 "
         id="polygon81"
         style="fill:#73000a;fill-opacity:1" /><polygon
         points="100.673,65.262 116.306,65.262 116.306,76.131 118.322,76.131 118.322,57.793 124.066,57.793 124.066,76.131 126.146,76.131 126.146,55.742 116.306,55.742 116.306,64.206 100.673,64.206 "
         id="polygon83"
         style="fill:#73000a;fill-opacity:1" /><path
         d="m 113.924,58.823 c -1.064,-0.545 -1.733,0 -1.733,0 l 0,17.308 1.733,0 0,-17.308 z"
         id="path85"
         inkscape:connector-curvature="0"
         style="fill:#73000a;fill-opacity:1" /><path
         d="m 109.636,60.842 c -1.064,-0.548 -1.733,0 -1.733,0 l 0,15.289 1.733,0 0,-15.289 z"
         id="path87"
         inkscape:connector-curvature="0"
         style="fill:#73000a;fill-opacity:1" /><path
         d="m 105.346,62.08 c -1.064,-0.543 -1.732,0 -1.732,0 l 0,14.051 1.732,0 0,-14.051 z"
         id="path89"
         inkscape:connector-curvature="0"
         style="fill:#73000a;fill-opacity:1" /><path
         d="m 101.057,63.002 c -1.063,-0.548 -1.73,0 -1.73,0 l 0,13.128 1.73,0 0,-13.128 z"
         id="path91"
         inkscape:connector-curvature="0"
         style="fill:#73000a;fill-opacity:1" /><path
         d="m 132.534,76.131 -2.789,0 3.396,-4.465 -3.856,0 0,-1.882 4.204,0 -0.059,-13.604 -2.936,-3.974 2.936,0 -3.866,-4.266 2.824,0 -2.353,-2.927 c -1.075,0.838 -1.637,1.398 -2.495,2.455 -1.139,1.405 -1.652,2.332 -2.347,3.999 l 0,-5.188 c 0.805,-0.738 1.308,-1.115 2.254,-1.668 1.508,-0.884 2.487,-1.227 4.208,-1.554 l 4.142,4.891 -3.115,0 3.744,4.259 -2.65,0 2.19,3.284 0.027,15.76 -3.459,4.88 z"
         id="path93"
         inkscape:connector-curvature="0"
         style="fill:#73000a;fill-opacity:1" /><g
         id="g95"
         style="fill:#73000a;fill-opacity:1"><path
           d="m 140.866,39.634 c 2.019,-0.682 3.305,-0.801 5.426,-0.607 2.657,0.245 4.225,0.869 6.396,2.424 1.358,0.968 2.06,1.664 3.027,3.024 l 0,6.119 c -0.728,-2.728 -1.589,-4.278 -3.54,-6.32 -1.896,-1.981 -3.356,-2.854 -5.941,-3.769 -2.002,-0.704 -3.248,-0.883 -5.368,-0.871 z"
           id="path97"
           inkscape:connector-curvature="0"
           style="fill:#73000a;fill-opacity:1" /><path
           d="m 134.831,39.634 c -2.014,-0.686 -3.305,-0.805 -5.425,-0.607 -2.655,0.253 -4.225,0.865 -6.393,2.424 -1.358,0.972 -2.056,1.664 -3.027,3.024 l 0,6.119 c 0.73,-2.728 1.585,-4.278 3.54,-6.32 1.898,-1.977 3.353,-2.854 5.936,-3.769 2.005,-0.7 3.248,-0.883 5.369,-0.871 z"
           id="path99"
           inkscape:connector-curvature="0"
           style="fill:#73000a;fill-opacity:1" /><path
           d="m 137.666,14.996 c 0.567,-3.967 1.407,-6.054 3.251,-8.305 1.021,-1.25 1.818,-1.498 3.201,-2.375 L 144.152,0 c -2.075,1.302 -3.168,2.445 -4.502,4.724 -1.22,2.088 -1.717,5.151 -1.984,7.269 -0.268,-2.118 -0.76,-5.181 -1.981,-7.269 C 134.348,2.446 133.26,1.303 131.182,0 l 0.035,4.316 c 1.385,0.877 2.179,1.125 3.198,2.375 1.849,2.251 2.689,4.338 3.251,8.305 z"
           id="path101"
           inkscape:connector-curvature="0"
           style="fill:#73000a;fill-opacity:1" /><path
           d="m 137.666,21.924 c 0.802,-2.128 1.358,-3.207 2.578,-5.05 1.765,-2.671 3.006,-4.107 5.551,-6.051 2.183,-1.656 3.626,-2.48 6.166,-3.352 l 0,-4.805 c -2.425,0.881 -3.192,1.814 -5.059,3.316 -0.76,0.605 -2.305,2.072 -3.717,3.835 -1.484,1.848 -2.823,4.008 -3.294,4.98 -0.674,1.401 -1.902,3.897 -2.225,5.885 -0.324,-1.988 -1.551,-4.484 -2.222,-5.885 -0.465,-0.972 -1.81,-3.132 -3.292,-4.98 -1.417,-1.763 -2.963,-3.23 -3.717,-3.835 -1.866,-1.501 -2.636,-2.435 -5.064,-3.316 l 0,4.805 c 2.54,0.872 3.983,1.699 6.166,3.352 2.545,1.936 3.789,3.376 5.557,6.051 1.218,1.843 1.772,2.922 2.572,5.05 z"
           id="path103"
           inkscape:connector-curvature="0"
           style="fill:#73000a;fill-opacity:1" /><path
           d="m 137.666,25.773 c 0.751,-1.977 1.728,-4.222 3.505,-6.478 1.805,-2.286 3.201,-3.279 5.589,-4.945 4.302,-2.995 7.281,-4.347 12.398,-5.189 l 0,4.95 c -2.318,0.103 -4.203,0.289 -6.775,1.005 -2.984,0.834 -4.548,1.639 -7.268,3.208 -2.198,1.271 -5.297,4.812 -7.45,8.53 -2.15,-3.718 -5.252,-7.258 -7.444,-8.53 -2.722,-1.569 -4.286,-2.375 -7.273,-3.208 -2.572,-0.717 -4.458,-0.902 -6.776,-1.005 l 0,-4.95 c 5.124,0.842 8.097,2.194 12.402,5.189 2.385,1.666 3.781,2.659 5.588,4.945 1.781,2.257 2.755,4.501 3.504,6.478 z"
           id="path105"
           inkscape:connector-curvature="0"
           style="fill:#73000a;fill-opacity:1" /><path
           d="m 137.66,30.699 c -2.981,-3.413 -6.466,-6.13 -8.931,-7.304 -3.326,-1.584 -5.866,-2.122 -9.749,-2.019 -2.594,0.065 -6.539,1.207 -6.539,1.207 l -0.016,-5.557 c 3.825,-0.004 6.066,0.354 9.722,1.516 3.815,1.203 5.994,2.16 9.176,4.583 2.891,2.198 4.225,4.107 6.343,6.824 2.123,-2.716 3.455,-4.625 6.345,-6.832 3.18,-2.431 5.358,-3.378 9.174,-4.587 3.658,-1.162 5.899,-1.52 9.725,-1.516 l -0.019,5.559 c 0,0 -3.946,-1.143 -6.54,-1.207 -3.882,-0.103 -6.422,0.437 -9.746,2.023 -2.463,1.168 -5.966,3.897 -8.945,7.31 z"
           id="path107"
           inkscape:connector-curvature="0"
           style="fill:#73000a;fill-opacity:1" /><path
           d="m 137.676,33.442 c 2.487,-2.54 4.024,-3.753 7.07,-5.429 3.938,-2.175 7.781,-3.349 11.012,-3.436 3.842,-0.103 6.443,0.4 10.079,1.858 l 0,5.338 c -2.957,-2.542 -4.945,-3.601 -8.646,-4.309 -4.685,-0.892 -7.701,-0.027 -12.1,1.821 -3.174,1.333 -4.772,2.458 -7.399,4.823 -2.62,-2.365 -4.259,-3.481 -7.452,-4.823 -4.398,-1.843 -7.414,-2.725 -12.097,-1.821 -3.698,0.712 -5.69,1.768 -8.651,4.309 l 0.004,-5.338 c 3.638,-1.458 6.236,-1.961 10.081,-1.858 3.228,0.087 7.068,1.273 11.011,3.436 3.056,1.673 4.601,2.889 7.088,5.429 z"
           id="path109"
           inkscape:connector-curvature="0"
           style="fill:#73000a;fill-opacity:1" /><path
           d="m 137.692,39.229 c 1.931,-1.665 3.704,-2.857 5.503,-3.424 3.554,-1.116 7.305,-0.191 9.423,0.435 2.812,0.831 7.02,3.048 9.92,6.708 l 0,5.719 c -1.406,-2.262 -2.382,-3.452 -4.291,-5.303 -2.693,-2.603 -4.369,-4.278 -7.947,-5.384 -3.329,-1.029 -5.68,-1.428 -8.934,-0.187 -1.567,0.599 -3.674,2.237 -3.674,2.237 -0.853,-0.822 -2.123,-1.638 -3.701,-2.237 -3.251,-1.234 -5.599,-0.842 -8.93,0.187 -3.575,1.105 -5.257,2.781 -7.947,5.384 -1.909,1.851 -2.889,3.041 -4.289,5.303 l 0,-5.719 c 2.898,-3.66 7.107,-5.878 9.918,-6.708 2.115,-0.625 5.869,-1.551 9.42,-0.435 1.799,0.567 3.601,1.759 5.529,3.424 z"
           id="path111"
           inkscape:connector-curvature="0"
           style="fill:#73000a;fill-opacity:1" /><path
           d="m 137.666,36.495 c 2.332,-2.401 3.851,-3.509 6.864,-4.721 5.147,-2.07 8.977,-1.79 14.229,0 3.807,1.295 5.908,2.643 8.7,5.547 l 0,6.881 c -1.551,-2.716 -2.728,-4.137 -5.064,-6.213 -2.674,-2.385 -4.534,-3.718 -7.877,-4.725 -3.021,-0.915 -7.498,-1.032 -10.76,0 -1.829,0.579 -4.005,1.864 -6.091,3.894 -2.081,-2.03 -4.262,-3.314 -6.091,-3.894 -3.262,-1.032 -7.738,-0.915 -10.76,0 -3.337,1.007 -5.198,2.344 -7.875,4.725 -2.335,2.076 -3.513,3.497 -5.062,6.213 l 0,-6.881 c 2.789,-2.9 4.892,-4.245 8.698,-5.547 5.249,-1.802 9.081,-2.074 14.225,0 3.013,1.211 4.531,2.319 6.864,4.721 z"
           id="path113"
           inkscape:connector-curvature="0"
           style="fill:#73000a;fill-opacity:1" /></g><path
         d="m 137.569,98.56 c 3.198,0.069 5.284,-0.209 8.567,-1.177 2.823,-0.834 4.506,-1.463 6.937,-3.158 0.866,0.917 1.059,1.23 2.026,1.883 1.353,0.901 1.74,1.152 3.22,1.725 l 0,-2.198 c -1.134,-0.529 -1.738,-0.931 -2.712,-1.706 -1.059,-0.85 -1.599,-1.422 -2.409,-2.511 -2.711,2.129 -4.535,3.081 -7.826,4.113 -2.928,0.914 -4.72,1.179 -7.787,1.12 l 0.011,0 -0.048,0 0.011,0 c -3.07,0.059 -4.861,-0.206 -7.792,-1.12 -3.286,-1.032 -5.115,-1.984 -7.826,-4.113 -0.808,1.089 -1.345,1.661 -2.404,2.511 -0.979,0.775 -1.58,1.177 -2.711,1.706 l 0,2.198 c 1.471,-0.572 1.864,-0.823 3.214,-1.725 0.974,-0.652 1.166,-0.966 2.032,-1.883 2.425,1.695 4.113,2.324 6.936,3.158 3.283,0.968 5.363,1.246 8.561,1.177 z"
         id="path115"
         inkscape:connector-curvature="0"
         style="fill:#73000a;fill-opacity:1" /><path
         d="m 137.593,82.171 c 2.667,0 4.479,-0.409 6.851,-1.594 2.019,-1.003 2.986,-1.882 4.403,-3.639 l 10.143,1.353 4.468,7.674 c 1.128,-0.86 1.685,-1.431 2.31,-2.697 0.46,-0.949 0.412,-1.784 0.487,-2.672 0.031,-0.32 0.374,-0.446 0.556,-0.152 0.182,0.294 6.364,10.284 6.364,10.284 -1.311,1.492 -2.263,2.102 -4.086,2.898 -2.481,1.077 -4.549,1.348 -7.208,0.845 -3.315,-0.623 -5.112,-1.848 -7.043,-4.663 l -5.818,-10.03 c -1.481,1.517 -2.52,2.263 -4.461,3.121 -1.519,0.668 -4.145,1.355 -6.968,1.294 -2.832,-0.064 -5.455,-0.626 -6.979,-1.294 -1.941,-0.858 -2.973,-1.604 -4.454,-3.121 l -5.818,10.03 c -1.928,2.815 -3.725,4.04 -7.043,4.663 -2.663,0.503 -4.724,0.232 -7.21,-0.845 -1.821,-0.797 -2.775,-1.406 -4.084,-2.898 0,0 6.182,-9.99 6.364,-10.284 0.182,-0.294 0.529,-0.168 0.553,0.152 0.079,0.888 0.028,1.723 0.494,2.672 0.623,1.267 1.176,1.837 2.306,2.697 l 4.468,-7.674 10.142,-1.353 c 1.412,1.757 2.385,2.636 4.404,3.639 2.369,1.185 4.19,1.594 6.851,1.594 l 0.008,0 z m -14.441,-2.732 -5.68,0.765 -3.936,6.768 c 1.112,0.521 1.942,0.545 3.171,0.358 1.524,-0.225 2.896,-0.477 3.68,-1.808 0,0 3.171,-5.375 3.188,-5.398 0.435,-0.867 -0.423,-0.685 -0.423,-0.685 z m -4.707,9.428 c -3.044,0.896 -5.038,0.412 -7.039,-0.663 -1.645,-0.882 -2.467,-1.717 -3.358,-3.358 l -3.264,5.284 c 1.34,1.409 2.996,2.104 4.905,2.323 3.613,0.422 6.04,-0.276 8.756,-3.586 z m 33.158,-8.743 c 0.01,0.023 3.187,5.398 3.187,5.398 0.784,1.331 2.155,1.583 3.68,1.808 1.228,0.187 2.064,0.163 3.171,-0.358 l -3.936,-6.768 -5.68,-0.765 c -0.001,0 -0.856,-0.182 -0.422,0.685 z m 13.881,12.329 c 1.909,-0.22 3.567,-0.914 4.909,-2.323 l -3.268,-5.284 c -0.891,1.642 -1.711,2.477 -3.355,3.358 -2.005,1.075 -3.991,1.559 -7.034,0.663 2.711,3.31 5.139,4.008 8.748,3.586 z"
         id="path117"
         inkscape:connector-curvature="0"
         style="fill:#73000a;fill-opacity:1" /><g
         id="g119"
         style="fill:#73000a;fill-opacity:1"><path
           d="m 174.379,80.355 c 1.272,0 2.288,1.026 2.294,2.32 0,1.315 -1.006,2.337 -2.289,2.337 -1.273,0.011 -2.306,-1.005 -2.311,-2.326 -0.006,-1.289 1.026,-2.326 2.295,-2.331 l 0.011,0 z m -0.006,0.368 c -1.022,0 -1.861,0.877 -1.856,1.963 0.006,1.102 0.845,1.974 1.878,1.968 1.032,0.011 1.855,-0.871 1.851,-1.968 -0.006,-1.097 -0.829,-1.968 -1.866,-1.963 l -0.007,0 z m -0.428,3.311 -0.412,0 -0.011,-2.588 c 0.22,-0.032 0.423,-0.07 0.738,-0.07 0.391,0 0.652,0.086 0.808,0.198 0.149,0.112 0.24,0.294 0.24,0.535 0,0.337 -0.229,0.551 -0.508,0.636 l 0,0.017 c 0.225,0.043 0.385,0.246 0.438,0.631 0.059,0.401 0.123,0.562 0.166,0.637 l -0.438,0 c -0.059,-0.075 -0.123,-0.315 -0.177,-0.652 -0.059,-0.337 -0.225,-0.46 -0.556,-0.46 l -0.294,0.005 0.006,1.111 z m -0.005,-1.433 0.305,0 c 0.337,-0.006 0.625,-0.129 0.625,-0.449 0,-0.225 -0.165,-0.455 -0.631,-0.455 -0.134,0 -0.229,0.016 -0.299,0.026 l 0,0.878 z"
           id="path121"
           inkscape:connector-curvature="0"
           style="fill:#73000a;fill-opacity:1" /></g></g></g></svg>